<?xml version="1.0" encoding="UTF-8" standalone="no"?>
<svg
   version="1.1"
   width="393.9194pt"
   height="84.097992pt"
   viewBox="0 0 393.9194 84.097992"
   id="svg41"
   sodipodi:docname="MicrosoftLogo.svg"
   inkscape:version="1.1 (c4e8f9e, 2021-05-24)"
   xmlns:inkscape="http://www.inkscape.org/namespaces/inkscape"
   xmlns:sodipodi="http://sodipodi.sourceforge.net/DTD/sodipodi-0.dtd"
   xmlns="http://www.w3.org/2000/svg"
   xmlns:svg="http://www.w3.org/2000/svg">
  <defs
     id="defs45" />
  <sodipodi:namedview
     id="namedview43"
     pagecolor="#ffffff"
     bordercolor="#666666"
     borderopacity="1.0"
     inkscape:pageshadow="2"
     inkscape:pageopacity="0.0"
     inkscape:pagecheckerboard="0"
     inkscape:document-units="pt"
     showgrid="false"
     viewbox-height="184.2"
     inkscape:zoom="1.7042744"
     inkscape:cx="64.250219"
     inkscape:cy="101.50948"
     inkscape:window-width="1312"
     inkscape:window-height="770"
     inkscape:window-x="0"
     inkscape:window-y="25"
     inkscape:window-maximized="0"
     inkscape:current-layer="svg41" />
  <g
     enable-background="new"
     id="g39"
     transform="translate(-54.771005,-50.69101)">
    <g
       id="Layer-1"
       data-name="Logotype">
      <path
         transform="matrix(1,0,0,-1,209.9297,79.1436)"
         d="m 0,0 v -38.776 h 8.669 v 50.39 H -3.329 l -15.251,-37.428 -14.8,37.428 h -12.487 v -50.39 h 8.147 v 38.78 h 0.28 l 15.628,-38.78 h 6.148 L -0.28,0 Z"
         fill="#737373"
         id="path9" />
      <clipPath
         id="cp0">
        <path
           transform="matrix(1,0,0,-1,0,185)"
           d="M 0,185 H 503 V 0 H 0 Z"
           id="path11" />
      </clipPath>
      <g
         clip-path="url(#cp0)"
         id="g36">
        <path
           transform="matrix(1,0,0,-1,0,185)"
           d="m 235.285,103.192 h -8.49499 V 67.08 h 8.49499 z m -4.161,15.384 c -1.398,0 -2.617,-0.476 -3.619,-1.419 -1.006,-0.946 -1.516,-2.137 -1.516,-3.542 0,-1.383 0.504,-2.552 1.5,-3.473 0.99,-0.918 2.213,-1.383 3.635,-1.383 1.422,0 2.65,0.465 3.652,1.382 1.008,0.922 1.519,2.091 1.519,3.474 0,1.356 -0.497,2.535 -1.478,3.504 -0.979,0.967 -2.222,1.457 -3.693,1.457"
           fill="#737373"
           id="path14" />
        <path
           transform="matrix(1,0,0,-1,260.6182,80.9375)"
           d="m 0,0 c -3.897,0 -7.373,-0.836 -10.33,-2.483 -2.963,-1.651 -5.254,-4.008 -6.813,-7.006 -1.552,-2.99 -2.34,-6.483 -2.34,-10.378 0,-3.412 0.764,-6.543 2.274,-9.303 1.511,-2.764 3.65,-4.926 6.357,-6.426 2.703,-1.498 5.827,-2.258 9.286,-2.258 4.037,0 7.484,0.807 10.247,2.399 l 0.112,0.064 v 7.782 l -0.357,-0.26 c -1.252,-0.912 -2.651,-1.64 -4.156,-2.164 -1.501,-0.524 -2.87,-0.789 -4.07,-0.789 -3.333,0 -6.009,1.043 -7.951,3.099 -1.947,2.059 -2.934,4.95 -2.934,8.588 0,3.661 1.029,6.626 3.058,8.814 2.022,2.182 4.703,3.289 7.967,3.289 2.792,0 5.513,-0.946 8.087,-2.813 l 0.356,-0.259 v 8.2 L 8.678,-1.839 C 7.709,-1.297 6.388,-0.849 4.748,-0.51 3.115,-0.171 1.518,0 0,0"
           fill="#737373"
           id="path16" />
        <path
           transform="matrix(1,0,0,-1,284.3252,88.0615)"
           d="M 0,0 V 6.254 H -8.495 V -29.858 H 0 v 18.472 c 0,3.142 0.712,5.722 2.117,7.671 1.388,1.926 3.237,2.902 5.494,2.902 0.765,0 1.624,-0.126 2.554,-0.376 0.921,-0.248 1.588,-0.517 1.981,-0.801 l 0.357,-0.258 V 6.316 L 12.365,6.375 C 11.574,6.711 10.455,6.881 9.039,6.881 6.905,6.881 4.994,6.195 3.358,4.844 1.922,3.657 0.884,2.03 0.09,0 Z"
           fill="#737373"
           id="path18" />
        <path
           transform="matrix(1,0,0,-1,316.1318,111.7598)"
           d="m 0,0 c -3.12,0 -5.582,1.035 -7.316,3.074 -1.745,2.049 -2.628,4.969 -2.628,8.682 0,3.829 0.884,6.826 2.63,8.911 1.734,2.072 4.171,3.123 7.245,3.123 2.981,0 5.354,-1.004 7.055,-2.986 C 8.695,18.812 9.562,15.839 9.562,11.965 9.562,8.043 8.746,5.031 7.138,3.016 5.541,1.016 3.141,0 0,0 m 0.384,30.822 c -5.956,0 -10.686,-1.745 -14.057,-5.186 -3.37,-3.442 -5.08,-8.205 -5.08,-14.158 0,-5.656 1.669,-10.202 4.959,-13.515 3.29,-3.315 7.767,-4.994 13.307,-4.994 5.771,0 10.408,1.769 13.779,5.258 3.369,3.486 5.078,8.203 5.078,14.017 0,5.743 -1.603,10.325 -4.765,13.616 -3.164,3.293 -7.613,4.962 -13.221,4.962"
           fill="#737373"
           id="path20" />
        <path
           transform="matrix(1,0,0,-1,352.3926,80.9375)"
           d="m 0,0 c -4.051,0 -7.401,-1.036 -9.961,-3.079 -2.575,-2.055 -3.881,-4.75 -3.881,-8.012 0,-1.695 0.282,-3.201 0.837,-4.478 0.558,-1.282 1.422,-2.41 2.57,-3.357 1.139,-0.939 2.897,-1.923 5.227,-2.924 1.958,-0.806 3.419,-1.488 4.347,-2.025 0.907,-0.527 1.551,-1.056 1.914,-1.572 0.353,-0.504 0.533,-1.194 0.533,-2.047 0,-2.426 -1.817,-3.606 -5.556,-3.606 -1.386,0 -2.968,0.289 -4.701,0.86 -1.734,0.57 -3.354,1.39 -4.814,2.441 l -0.357,0.256 v -8.279 l 0.131,-0.061 c 1.217,-0.562 2.751,-1.035 4.559,-1.408 1.805,-0.373 3.444,-0.563 4.869,-0.563 4.396,0 7.935,1.041 10.518,3.096 2.599,2.069 3.916,4.828 3.916,8.203 0,2.434 -0.709,4.522 -2.107,6.205 -1.388,1.67 -3.797,3.203 -7.158,4.558 -2.677,1.074 -4.393,1.967 -5.1,2.651 -0.682,0.662 -1.028,1.597 -1.028,2.782 0,1.05 0.427,1.891 1.305,2.573 0.884,0.685 2.115,1.033 3.659,1.033 1.433,0 2.899,-0.226 4.357,-0.67 1.457,-0.443 2.736,-1.037 3.805,-1.764 l 0.351,-0.24 v 7.854 L 8.1,-1.515 C 7.114,-1.093 5.815,-0.731 4.237,-0.438 2.665,-0.147 1.239,0 0,0"
           fill="#737373"
           id="path22" />
        <path
           transform="matrix(1,0,0,-1,385.0107,111.7598)"
           d="m 0,0 c -3.121,0 -5.582,1.035 -7.316,3.074 -1.745,2.049 -2.629,4.97 -2.629,8.682 0,3.829 0.884,6.826 2.63,8.911 1.735,2.072 4.172,3.123 7.245,3.123 2.982,0 5.355,-1.004 7.055,-2.986 C 8.694,18.812 9.562,15.839 9.562,11.965 9.562,8.043 8.746,5.031 7.138,3.016 5.541,1.016 3.14,0 0,0 m 0.383,30.822 c -5.955,0 -10.685,-1.745 -14.057,-5.186 -3.37,-3.442 -5.079,-8.205 -5.079,-14.158 0,-5.654 1.668,-10.202 4.958,-13.515 3.29,-3.315 7.768,-4.994 13.307,-4.994 5.772,0 10.408,1.769 13.779,5.258 3.37,3.486 5.078,8.203 5.078,14.017 0,5.743 -1.602,10.325 -4.764,13.616 -3.164,3.293 -7.613,4.962 -13.222,4.962"
           fill="#737373"
           id="path24" />
        <path
           transform="matrix(1,0,0,-1,448.6904,88.7354)"
           d="m 0,0 v 6.928 h -8.602 v 10.77 l -0.291,-0.089 -8.08,-2.472 -0.159,-0.049 v -8.16 h -12.754 v 4.545 c 0,2.117 0.474,3.737 1.407,4.817 0.926,1.068 2.252,1.61 3.941,1.61 1.215,0 2.473,-0.286 3.738,-0.85 l 0.318,-0.142 v 7.296 l -0.15,0.055 c -1.18,0.424 -2.787,0.638 -4.777,0.638 -2.51,0 -4.79,-0.546 -6.778,-1.628 -1.99,-1.084 -3.555,-2.631 -4.651,-4.598 -1.093,-1.965 -1.647,-4.234 -1.647,-6.745 V 6.928 h -5.991 V 0 h 5.991 v -29.185 h 8.599 V 0 h 12.754 v -18.547 c 0,-7.638 3.603,-11.509 10.708,-11.509 1.168,0 2.397,0.137 3.652,0.405 1.277,0.275 2.147,0.55 2.659,0.843 L 0,-28.741 v 6.992 l -0.35,-0.232 c -0.466,-0.311 -1.047,-0.565 -1.729,-0.754 -0.685,-0.192 -1.256,-0.289 -1.698,-0.289 -1.665,0 -2.897,0.449 -3.661,1.334 -0.773,0.893 -1.164,2.455 -1.164,4.64 V 0 Z"
           fill="#737373"
           id="path26" />
        <path
           transform="matrix(1,0,0,-1,0,185)"
           d="M 94.732,94.348 H 54.771005 v 39.96099 H 94.732 Z"
           fill="#f25022"
           id="path28" />
        <path
           transform="matrix(1,0,0,-1,0,185)"
           d="m 138.853,94.348 h -39.96 v 39.96099 h 39.96 z"
           fill="#7fba00"
           id="path30" />
        <path
           transform="matrix(1,0,0,-1,0,185)"
           d="M 94.731,50.211 H 54.771005 V 90.172 H 94.731 Z"
           fill="#00a4ef"
           id="path32" />
        <path
           transform="matrix(1,0,0,-1,0,185)"
           d="m 138.853,50.211 h -39.96 v 39.961 h 39.96 z"
           fill="#ffb900"
           id="path34" />
      </g>
    </g>
  </g>
</svg>
