<svg xmlns="http://www.w3.org/2000/svg" width="274.16" height="29.537" viewBox="0 0 205.62 22.153">
   <defs>
      <style type="text/css">
         [id=translated_by] { fill: rgba(0, 0, 0, 0.87); }
         @media (prefers-color-scheme: dark) {
            [id=translated_by] { fill: rgba(255, 255, 255, 0.87); }
         }
      </style>
   </defs>
   <text
      x="-.291" y="17.551" font-size="15" id="translated_by"
      font-family="'Inter', -apple-system, BlinkMacSystemFont, 'Segoe UI', 'Roboto', 'Oxygen', 'Ubuntu', 'Cantarell', 'Fira Sans', 'Droid Sans', 'Helvetica Neue', sans-serif">
      <tspan x="-.291" y="17.551">Translated by</tspan>
   </text>
   <g data-name="Logotype" transform="translate(87.426 -13.353) scale(.26342)">
      <path
         d="M209.93 79.144v38.776h8.669V67.53H206.6l-15.251 37.428-14.8-37.428h-12.487v50.39h8.147V79.14h.28l15.628 38.78h6.148l15.384-38.776z"
         fill="#737373" />
      <clipPath id="prefix__a">
         <path transform="matrix(1 0 0 -1 0 185)" d="M0 185h503V0H0z" />
      </clipPath>
      <g clip-path="url(#prefix__a)">
         <path
            d="M235.285 81.808h-8.495v36.112h8.495zm-4.161-15.384c-1.398 0-2.617.476-3.619 1.419-1.006.946-1.516 2.137-1.516 3.542 0 1.383.504 2.552 1.5 3.473.99.918 2.213 1.383 3.635 1.383 1.422 0 2.65-.465 3.652-1.382 1.008-.922 1.519-2.091 1.519-3.474 0-1.356-.497-2.535-1.478-3.504-.979-.967-2.222-1.457-3.693-1.457m29.494 14.514c-3.897 0-7.373.835-10.33 2.482-2.963 1.652-5.254 4.009-6.813 7.007-1.552 2.99-2.34 6.482-2.34 10.377 0 3.413.764 6.544 2.274 9.304 1.511 2.763 3.65 4.925 6.357 6.425 2.703 1.499 5.827 2.259 9.286 2.259 4.037 0 7.484-.808 10.247-2.4l.112-.063v-7.782l-.357.26a15.961 15.961 0 01-4.156 2.164c-1.5.524-2.87.789-4.07.789-3.333 0-6.009-1.043-7.95-3.1-1.948-2.058-2.935-4.95-2.935-8.587 0-3.661 1.03-6.626 3.058-8.814 2.022-2.182 4.703-3.29 7.967-3.29 2.792 0 5.513.947 8.087 2.814l.356.259v-8.2l-.115-.065c-.969-.542-2.29-.99-3.93-1.33a23.452 23.452 0 00-4.748-.51m23.707 7.124v-6.254h-8.495v36.112h8.495V99.448c0-3.143.712-5.723 2.117-7.672 1.388-1.926 3.237-2.902 5.494-2.902.765 0 1.624.126 2.554.376.921.248 1.588.517 1.981.801l.357.258v-8.564l-.138-.059c-.79-.336-1.91-.506-3.326-.506-2.134 0-4.045.686-5.68 2.037-1.437 1.187-2.475 2.814-3.269 4.844zm31.807 23.699c-3.12 0-5.582-1.035-7.316-3.074-1.745-2.05-2.628-4.97-2.628-8.682 0-3.83.884-6.826 2.63-8.911 1.734-2.072 4.17-3.123 7.245-3.123 2.98 0 5.354 1.004 7.055 2.986 1.709 1.992 2.576 4.965 2.576 8.839 0 3.922-.816 6.934-2.424 8.949-1.597 2-3.997 3.016-7.138 3.016m.384-30.822c-5.956 0-10.686 1.745-14.057 5.186-3.37 3.442-5.08 8.205-5.08 14.158 0 5.656 1.669 10.202 4.959 13.515 3.29 3.315 7.767 4.994 13.307 4.994 5.77 0 10.408-1.77 13.779-5.258 3.369-3.486 5.078-8.203 5.078-14.017 0-5.743-1.603-10.325-4.765-13.616-3.164-3.293-7.613-4.962-13.221-4.962m35.877 0c-4.051 0-7.401 1.035-9.961 3.078-2.575 2.055-3.881 4.75-3.881 8.012 0 1.695.282 3.201.837 4.478.558 1.282 1.422 2.41 2.57 3.357 1.139.94 2.897 1.923 5.227 2.924 1.958.806 3.419 1.488 4.347 2.025.907.528 1.55 1.057 1.914 1.573.353.503.533 1.193.533 2.046 0 2.427-1.817 3.607-5.556 3.607-1.386 0-2.968-.29-4.701-.86a17.667 17.667 0 01-4.814-2.442l-.357-.256v8.28l.13.06c1.218.563 2.752 1.036 4.56 1.409 1.805.372 3.444.562 4.869.562 4.396 0 7.935-1.04 10.518-3.095 2.599-2.07 3.916-4.829 3.916-8.204 0-2.434-.71-4.522-2.107-6.205-1.388-1.67-3.797-3.203-7.158-4.558-2.677-1.073-4.393-1.966-5.1-2.65-.682-.662-1.028-1.597-1.028-2.782 0-1.05.427-1.891 1.305-2.573.884-.685 2.115-1.033 3.659-1.033 1.433 0 2.899.226 4.357.67 1.457.443 2.736 1.037 3.805 1.764l.35.24V82.51l-.134-.058c-.986-.423-2.285-.785-3.863-1.078-1.572-.29-2.998-.437-4.237-.437m32.617 30.823c-3.12 0-5.581-1.035-7.315-3.074-1.745-2.05-2.63-4.97-2.63-8.682 0-3.83.885-6.826 2.63-8.911 1.736-2.072 4.173-3.123 7.246-3.123 2.982 0 5.355 1.004 7.055 2.986 1.709 1.992 2.577 4.965 2.577 8.839 0 3.922-.816 6.934-2.424 8.949-1.597 2-3.998 3.016-7.138 3.016m.383-30.822c-5.955 0-10.685 1.745-14.057 5.186-3.37 3.442-5.08 8.205-5.08 14.158 0 5.654 1.669 10.202 4.959 13.515 3.29 3.315 7.768 4.994 13.307 4.994 5.772 0 10.408-1.77 13.779-5.258 3.37-3.486 5.078-8.203 5.078-14.017 0-5.743-1.602-10.325-4.764-13.616-3.164-3.293-7.613-4.962-13.222-4.962m63.296 7.797v-6.928h-8.602v-10.77l-.29.09-8.08 2.471-.16.05v8.16h-12.754v-4.546c0-2.117.474-3.737 1.407-4.817.926-1.068 2.252-1.61 3.941-1.61 1.215 0 2.473.286 3.738.85l.318.142v-7.296l-.15-.055c-1.18-.424-2.787-.638-4.777-.638-2.51 0-4.79.546-6.778 1.628a11.583 11.583 0 00-4.65 4.598c-1.094 1.965-1.648 4.234-1.648 6.745v4.998h-5.99v6.928h5.99v29.185h8.6V88.735h12.753v18.547c0 7.638 3.603 11.51 10.708 11.51 1.168 0 2.397-.138 3.652-.406 1.277-.275 2.147-.55 2.66-.843l.112-.067v-6.992l-.35.232c-.466.311-1.047.565-1.729.754-.685.192-1.256.29-1.698.29-1.665 0-2.897-.45-3.66-1.335-.774-.893-1.165-2.455-1.165-4.64v-17.05z"
            fill="#737373" />
         <path d="M94.732 90.652H54.771V50.691h39.961z" fill="#f25022" />
         <path d="M138.853 90.652h-39.96V50.691h39.96z" fill="#7fba00" />
         <path d="M94.731 134.789h-39.96V94.828h39.96z" fill="#00a4ef" />
         <path d="M138.853 134.789h-39.96V94.828h39.96z" fill="#ffb900" />
      </g>
   </g>
</svg>